<?xml version="1.0" encoding="utf-8"?>
<!-- Generator: Adobe Illustrator 26.0.3, SVG Export Plug-In . SVG Version: 6.00 Build 0)  -->
<svg version="1.1" id="Layer_1" xmlns="http://www.w3.org/2000/svg" xmlns:xlink="http://www.w3.org/1999/xlink" x="0px" y="0px"
	 viewBox="0 0 1080 1080" style="enable-background:new 0 0 1080 1080;" xml:space="preserve">
<g>
	<path d="M252.7,382.8c9.1,8.6,17.9,18,26.3,27c20.1,21.5,39.4,43.3,59.5,64.6c16.8,18.1,34.2,36.2,51.8,53.5
		c25.9,26.1,52.9,48.5,79.7,74.3c27,26.1,51,56.4,70.1,88.6c9.7,16.1,18.2,33,25.5,50.3c12.1,29.4,21.3,59.7,23.6,91.7
		c-38.5-28.6-74.2-61.2-110-92c-34-30.2-68.4-58.7-102.5-88.6c-37.9-33.7-70.5-75.7-92-121.8C263.5,485.3,250,432.8,252.7,382.8
		L252.7,382.8z"/>
</g>
<g>
	<path d="M235.7,943.8c-13.4-117.4,16-247.3,63-354.8C328,521.5,366,457.5,411.8,399.8c40.3-50.9,86.9-97.1,139.5-135.2
		c14.2-10.1,28.8-19.8,44.2-28.2c-3.5,7.9-7.5,15.9-11.3,23.6c-26.4,52.4-55.1,103.5-82.9,155.1c-18.5,33.9-36.8,68.1-55,102.2
		c-6.4,12.6-13.3,25.1-19.6,37.7c-27.1,52-53.1,104.8-78.7,157.5c-7.9,16.6-15.9,33.2-23.7,49.7
		C295.1,822.5,267.7,884.4,235.7,943.8L235.7,943.8z"/>
</g>
<g>
	<path d="M510,247.4c14.3,59,29.9,116.7,51.5,173.1c3.2,8.7,8.1,21.4,11.7,29.8c1.7,4.2,4.2,10.7,6.1,14.8
		c12.5,29.2,26.2,57.7,41.1,85.7c29.8,55.2,64.3,107.9,103.2,156.9c0,0-88.2,24.7-88.2,24.7c0.7-7.3,1.4-14.5,2.1-21.7
		c20.7-194.8,78.9-387.3,180-555.7c15-24.8,31-49.1,48.6-72.2c-1.3,5.9-3.4,15.2-4.8,21.2c-19.8,82.8-40.9,165.5-59.2,248.5
		c-38.5,167.2-64.2,342.7-84.3,513.3c-46.9-64.3-112.2-145.3-145-217.3c-2.7-5.9-8.6-18-11-23.7c-8-18.1-16-37.9-22.4-56.6
		C504.2,467,490.3,353.3,510,247.4L510,247.4z"/>
</g>
</svg>
